# xmcd
#
# Track frame offsets:
#	150
#	10033
#	26404
#	43797
#	62302
#	76057
#	94105
#	109627
#	123231
#	140613
#	155491
#	180612
#	196900
#	212345
#	223705
#	237087
#	249708
#	262614
#	277989
#	292277
#	308656
#	324899
#	343603
#
# Disc length: 4705 seconds
#
# Revision: 1
# Processed by: cddbd v1.5.1PL0 Copyright (c) Steve Scherf et al.
# Submitted via: EasyCDDAExtractor 8.1.4.1
#
DISCID=33125f17
DTITLE=GINO and GENO - ao vivo
DYEAR=2004
DGENRE=Country
TTITLE0=ABERTURA
TTITLE1=ELA CHOROU DE AMOR
TTITLE2=VOU BEBER VENENO
TTITLE3=CORAÇÃO CIGANO
TTITLE4=NÓIS ENVERGA MAIS NÃO QUEBRA
TTITLE5=AS ÁGUAS DO SÃO FRANCISCO
TTITLE6=O QUE EU TÔ FAZENDO AQUI
TTITLE7=CABELO DE SAMAMBAIA
TTITLE8=MULHER QUE NÃO DÁ VOA
TTITLE9=BLUSA AMARELA
TTITLE10=PAIXÃO MINEIRA
TTITLE11=TROFÉU DE DOR
TTITLE12=TELEFONE NO AR
TTITLE13=VOU GASTAR O BARÃO
TTITLE14=MORENA DE 14 ANOS
TTITLE15=XONADO SEM QUANTIA
TTITLE16=FOI UMA NOITE SÓ
TTITLE17=SÓ VOCÊ
TTITLE18=CARA DE BOI
TTITLE19=BATE A BOTA NO CHÃO
TTITLE20=PINGA NA GARGANTA
TTITLE21=APAIXONADO POR VOCÊ
TTITLE22=ENCERRAMENTO
EXTD=www.hproducoes.rg3.net
EXTT0=
EXTT1=
EXTT2=
EXTT3=
EXTT4=
EXTT5=
EXTT6=
EXTT7=
EXTT8=
EXTT9=
EXTT10=
EXTT11=
EXTT12=
EXTT13=
EXTT14=
EXTT15=
EXTT16=
EXTT17=
EXTT18=
EXTT19=
EXTT20=
EXTT21=
EXTT22=
PLAYORDER=
